<mxfile host="app.diagrams.net" modified="2024-04-26T14:46:01.890Z" agent="Mozilla/5.0 (Windows NT 10.0; Win64; x64) AppleWebKit/537.36 (KHTML, like Gecko) Chrome/124.0.0.0 Safari/537.36" version="24.3.0" etag="LJmLC1ep01CG95ak-DQV" type="github">
  <diagram name="Page-1" id="_YfqyzV4hg7-UfhUi8F3">
    <mxGraphModel>
      <root>
        <mxCell id="0" />
        <mxCell id="1" parent="0" />
      </root>
    </mxGraphModel>
  </diagram>
</mxfile>
